<?xml version="1.0" encoding="utf-8"?>
<!-- Generator: Adobe Illustrator 16.0.0, SVG Export Plug-In . SVG Version: 6.00 Build 0)  -->
<!DOCTYPE svg PUBLIC "-//W3C//DTD SVG 1.1//EN" "http://www.w3.org/Graphics/SVG/1.1/DTD/svg11.dtd">
<svg version="1.1" id="Calque_1" xmlns="http://www.w3.org/2000/svg" xmlns:xlink="http://www.w3.org/1999/xlink" x="0px" y="0px"
	 width="612px" height="792px" viewBox="0 0 612 792" enable-background="new 0 0 612 792" xml:space="preserve">
<g>
	<g>
		<path fill-rule="evenodd" clip-rule="evenodd" fill="#5B4B67" d="M460.457,588.702c-102.487,0-204.975,0-307.462,0
			c-9.695-0.506-17.931-4.181-24.562-11.328c-1.091-1.175-2.338-2.272-2.358-4.074c0.47-2.848,2.706-4.427,4.645-6.116
			c8.835-7.695,17.153-15.951,25.882-23.757c13.747-12.294,27.1-25.016,40.83-37.329c7.233-6.486,14.254-13.219,21.455-19.747
			c11.167-10.124,22.107-20.491,33.379-30.502c3.909-3.472,7.563-7.231,11.501-10.69c2.612-2.293,4.844-5.021,7.887-6.821
			c5.856-6.112,11.629-12.335,19.373-16.168c13.448-6.655,29.532-4.052,40.522,6.281c3.443,3.236,7.156,6.188,10.266,9.772
			c4.707,2.924,8.229,7.226,12.265,10.896c7.553,6.872,15.019,13.857,22.57,20.731c13.63,12.406,27.061,25.029,40.799,37.319
			c7.147,6.394,14.104,13.007,21.178,19.488c11.205,10.268,22.355,20.596,33.617,30.802c4.153,3.764,8.193,7.659,12.331,11.445
			c1.286,1.178,2.534,2.431,2.804,4.302c-1.451,5.135-6.033,7.3-9.75,10.301C472.598,587.567,466.42,587.767,460.457,588.702z"/>
		<path fill-rule="evenodd" clip-rule="evenodd" fill="#FEFEFE" d="M126.71,572.972c6.507,8.133,14.933,13.056,25.131,15.001
			c0.508,0.097,0.953,0.193,1.154,0.729c-12.749,0-25.497,0-38.245,0c0-126.859,0.011-253.718-0.07-380.578
			c-0.002-2.812,0.633-3.451,3.445-3.446c60.368,0.094,120.735,0.072,181.103,0.072c0.246,2.118-1.536,2.521-2.824,2.791
			c-9.551,1.999-17.385,7.292-25.194,12.722c-12.176,8.467-24.536,16.667-36.766,25.056c-8.119,5.569-16.452,10.825-24.373,16.678
			c-1.72,1.271-3.977,1.527-5.527,3.072c-0.834,0.854-1.917,1.064-3.039,1.267c-12.785,2.306-22.894,8.627-29.764,19.832
			c-0.773,1.261-1.53,2.582-2.804,3.459c-13.558,9.87-28.841,17.711-38.202,32.51c-0.67,1.059-1.662,1.846-2.328,2.912
			c-4.002,8.21-7.809,16.471-9.115,25.637c-0.687,4.816-1.332,9.617-1.328,14.507c0.035,44.051,0.046,88.102,0.004,132.152
			c-0.011,11.344,0.347,22.695-0.472,34.032c-0.415,5.743-0.199,11.466,1.039,17.109c0.177,6.977,2.566,13.234,6.234,19.081
			C125.806,569.222,127.142,570.784,126.71,572.972z"/>
		<path fill-rule="evenodd" clip-rule="evenodd" fill="#FEFEFE" d="M460.457,588.702c6.647-2.064,13.336-4.02,18.921-8.478
			c2.714-2.165,5.346-4.394,7.363-7.257c-0.431-2.218,0.941-3.789,1.988-5.463c3.637-5.819,5.984-12.054,6.195-18.995
			c1.637-7.789,1.357-15.617,0.611-23.463c-0.165-1.738-0.068-3.493-0.068-5.24c-0.001-50.549-0.06-101.1,0.037-151.649
			c0.027-14.231-2.393-27.795-9.279-40.389c-0.479-0.876-0.841-1.811-1.207-2.729c-4.078-5.163-7.782-10.624-12.689-15.138
			c-5.26-4.839-11.033-8.958-17.033-12.758c-3.881-2.457-7.256-5.629-11.345-7.769c-2.155-2.566-3.666-5.584-5.76-8.205
			c-6.586-8.243-15.303-12.757-25.498-14.719c-1.335-0.257-2.737-0.25-3.839-1.224c-6.733-4.245-13.361-8.655-19.931-13.145
			c-17.793-12.16-35.708-24.139-53.439-36.386c-5.425-3.746-11.33-6.186-17.624-7.943c-1.68-0.469-4.237-0.116-4.385-3.004
			c60.742,0,121.484,0.021,182.227-0.072c2.567-0.004,3.072,0.504,3.071,3.071c-0.082,125.984-0.082,251.968,0,377.953
			c0.001,2.567-0.497,3.115-3.072,3.077C483.955,588.604,472.206,588.702,460.457,588.702z"/>
		<path fill-rule="evenodd" clip-rule="evenodd" fill="#4C3E57" d="M313.476,204.75c2.695,0.746,5.403,1.451,8.085,2.248
			c5.173,1.538,9.918,3.977,14.371,7c23.596,16.02,47.191,32.041,70.78,48.072c0.917,0.622,1.764,1.349,2.644,2.026
			c-0.045,1.665-1.275,1.974-2.547,2.171c-1.36,0.21-2.739,0.208-4.113,0.208c-63.956,0.021-127.913,0.018-191.868,0.001
			c-1.374-0.001-2.752,0.006-4.115-0.194c-1.405-0.207-2.771-0.496-2.815-2.349c23.928-16.234,47.882-32.431,71.769-48.727
			c6.994-4.771,14.382-8.45,22.823-9.771c0.275-0.042,0.493-0.449,0.738-0.686c2.75,0,5.5,0,8.249,0c1.5,0.593,3,0.593,4.5,0
			C312.476,204.75,312.976,204.75,313.476,204.75z"/>
		<path fill-rule="evenodd" clip-rule="evenodd" fill="#64576D" d="M311.976,204.75c-1.5,1.186-3,0.92-4.5,0
			C308.976,204.75,310.476,204.75,311.976,204.75z"/>
		<path fill-rule="evenodd" clip-rule="evenodd" fill="#AA9BB2" d="M341.251,439.524c-3.787-3.435-7.568-6.877-11.361-10.305
			c-13.318-12.035-33.019-12.034-46.321-0.001c-3.791,3.43-7.574,6.868-11.361,10.303c-2.134,0.733-3.614-0.585-5.009-1.771
			c-8.626-7.326-17.705-14.092-26.382-21.354c-13.866-10.798-27.427-21.977-41.107-33.006
			c-10.961-8.837-21.965-17.619-32.881-26.512c-1.441-1.174-2.881-2.462-2.929-4.583c-0.066-8.121-0.041-16.24-0.006-24.359
			c0.007-1.539-0.572-3.486,1.423-4.261c1.727-0.671,3.065,0.455,4.38,1.474c19.005,14.713,39.242,27.48,60.744,38.218
			c9.614,4.803,19.552,8.864,29.801,12.105c2.607,0.824,4.964,2.289,7.675,2.782c2.313,0.376,4.545,1.148,6.885,1.398
			c2.713,1.381,5.797,1.033,8.643,1.842c1.544,0.438,3.13,0.672,4.465,1.643c1.193,1.027,0.904,2.48,1.115,3.809
			c0.535,3.357,2.82,4.603,5.981,3.323c4.695-1.901,4.733-1.913,6.153,2.543c0.735,2.307,1.823,4.271,4.555,4.128
			c2.89-0.15,3.361-2.535,3.808-4.787c0.878-4.428,1.383-4.674,5.17-2.483c3.887,2.248,6.059,1.301,6.889-3.075
			c0.236-1.241,0.406-2.46,1.391-3.38c2.713-1.804,5.911-1.735,8.945-2.239c0.981-0.164,1.972-0.086,2.772-0.8
			c2.75-0.361,5.442-0.99,8.09-1.83c9.971-2.862,19.688-6.437,29.188-10.58c25.43-11.089,48.899-25.508,71.101-42.063
			c0.501-0.374,0.963-0.798,1.466-1.169c1.158-0.853,2.433-1.426,3.833-0.768c1.399,0.659,1.199,2.073,1.201,3.298
			c0.016,8.374,0.051,16.748-0.012,25.118c-0.024,2.435-1.77,3.774-3.404,5.088c-22.481,18.08-44.804,36.359-67.383,54.32
			c-2.037,1.62-4.132,3.168-6.14,4.824c-8.675,7.023-17.377,14.012-26.01,21.087C345.043,438.791,343.422,439.863,341.251,439.524z"
			/>
		<path fill-rule="evenodd" clip-rule="evenodd" fill="#50415B" d="M241.721,415.308c10.163,8.071,20.324,16.143,30.486,24.214
			c-15.455,14.313-30.887,28.648-46.372,42.928c-11.82,10.902-23.717,21.721-35.561,32.598
			c-15.609,14.333-31.177,28.713-46.811,43.021c-5.513,5.045-11.166,9.939-16.754,14.903c-5.702-6.66-9.176-14.266-9.782-23.085
			c-0.687-6.463-0.267-12.945-0.237-19.416c0.017-3.589,2.841-5.708,5.288-7.813c7.938-6.826,15.467-14.099,23.188-21.16
			c11.122-10.17,22.273-20.31,33.365-30.512c6.879-6.328,13.735-12.681,20.628-18.996c12.86-11.78,25.676-23.61,38.525-35.403
			C238.866,415.504,240.079,414.798,241.721,415.308z"/>
		<path fill-rule="evenodd" clip-rule="evenodd" fill="#50415B" d="M341.251,439.524c9.346-7.513,18.689-15.03,28.046-22.53
			c0.771-0.618,1.632-1.122,2.45-1.679c1.47-0.444,2.655,0.018,3.752,1.034c6.03,5.588,12.135,11.095,18.208,16.637
			c14.166,12.928,28.079,26.132,42.452,38.837c3.824,3.379,7.486,6.95,11.226,10.428c14.958,13.914,30.048,27.682,45.188,41.395
			c2.854,2.584,4.559,5.41,4.3,9.429c-0.359,5.582,0.339,11.196-0.359,16.78c-0.614,8.822-4.032,16.458-9.771,23.113
			c-6.563-5.931-13.151-11.833-19.684-17.798c-14.632-13.362-29.248-26.742-43.844-40.145c-7.163-6.577-14.232-13.255-21.402-19.823
			c-14.059-12.881-28.176-25.695-42.231-38.58C353.422,450.977,347.357,445.228,341.251,439.524z"/>
		<path fill-rule="evenodd" clip-rule="evenodd" fill="#594A65" d="M402.453,532.451c-1.784,0.106-3.491-0.509-4.948-1.854
			c-6.417-5.915-12.824-11.84-19.263-17.729c-11.221-10.264-22.466-20.499-33.686-30.762c-1.382-1.265-2.715-2.588-3.998-3.952
			c-2.817-2.997-2.929-5.061-0.511-7.854c2.511-2.899,4.948-3.311,8.133-0.619c5.899,4.984,11.597,10.213,17.292,15.434
			c12.682,11.624,25.322,23.295,37.946,34.981c1.364,1.263,2.784,2.6,3.71,4.177C409.431,528.192,407.003,532.449,402.453,532.451z"
			/>
		<path fill-rule="evenodd" clip-rule="evenodd" fill="#A694AC" d="M448.535,352.676c-0.031-8.359-0.048-16.717-0.114-25.075
			c-0.007-0.935,0.479-2.192-0.617-2.718c-1.076-0.517-1.761,0.585-2.529,1.169c-29.797,22.621-61.78,41.186-97.593,52.663
			c-1.69,0.542-3.378,0.86-5.146,0.716c-1.53-2.426-0.988-5.268-1.48-7.897c-0.288-1.542,1.011-2.447,2.692-2.307
			c1.148,0.095,2.12,0.665,3.141,1.144c2.824,1.327,5.226,0.906,6.206-1.188c1.164-2.487,0.105-4.323-2.052-5.697
			c-0.421-0.269,0.09,0.092-0.319-0.196c-3.88-2.731-3.953-3.607-0.37-6.55c1.614-1.326,2.481-2.876,1.659-4.904
			c-0.842-2.082-2.642-2.505-4.664-2.193c-3.342,0.516-6.505,1.743-9.781,2.529c-1.598,0.383-3.248,0.929-4.782,0.275
			c-5.293-2.258-10.272-5.135-14.834-8.625c-1.907-1.459-1.377-3.596,0.477-4.732c5.85-3.584,11.287-8.477,19.193-5.589
			c3.115,1.139,6.604,1.229,9.911,1.854c2.459,0.463,4.307-0.235,5.048-2.648c0.81-2.633-0.523-4.265-2.985-5.187
			c-1.354-0.507-3.197-0.664-3.319-2.554c-0.12-1.861,1.439-2.804,2.771-3.727c1.022-0.709,2.19-1.208,3.09-2.1
			c1.372-1.364,1.964-2.955,0.981-4.742c-1.049-1.906-2.786-2.358-4.827-1.876c-1.119,0.265-1.996,1.017-3.007,1.496
			c-3.354,1.588-4.752,0.763-5.064-2.94c-0.021-0.248-0.017-0.5-0.037-0.749c-0.155-1.949-1.092-3.357-3.023-3.814
			c-2.164-0.512-3.659,0.63-4.545,2.461c-1.087,2.25-1.922,4.639-2.421,7.078c-1.088,5.324-3.504,9.475-8.742,11.762
			c-2.266,0.989-4.336,2.481-6.56,3.592c-3.048,1.523-4.944,0.475-5.193-2.821c-0.281-3.736-0.253-7.496,0.03-11.236
			c0.188-2.499,1.597-4.46,3.328-6.122c2.445-2.345,4.434-5.074,6.671-7.591c1.604-1.807,2.502-3.948,0.822-6.101
			c-1.716-2.198-3.805-1.708-6.007-0.421c-3.028,1.77-4.146,1.19-4.919-2.213c-0.055-0.243-0.076-0.494-0.115-0.741
			c-0.363-2.329-1.464-4.056-4.003-4.222c-2.65-0.172-3.667,1.746-4.363,3.868c-1.592,4.861-1.589,4.89-6.191,2.758
			c-1.953-0.904-3.707-0.746-5.057,0.939c-1.363,1.702-1.083,3.638,0.167,5.203c2.099,2.629,4.216,5.3,6.645,7.599
			c3.176,3.005,4.489,6.454,4.199,10.722c-0.144,2.114,0.03,4.248-0.058,6.371c-0.192,4.651-1.775,5.572-5.869,3.559
			c-2.919-1.436-5.629-3.233-8.497-4.757c-2.053-1.092-3.452-2.774-4.164-5.071c-1.146-3.695-2.496-7.326-3.567-11.048
			c-0.679-2.359-1.99-4.224-4.734-3.848c-2.695,0.37-3.476,2.274-3.491,4.896c-0.019,3.344-1.268,4.213-4.556,3.306
			c-2.274-0.627-4.272-0.738-5.535,1.57c-1.291,2.36,0.087,3.964,1.776,5.493c2.925,2.646,2.725,4.006-0.909,5.6
			c-2.268,0.994-4.095,2.293-3.475,4.998c0.695,3.036,3.278,3.118,5.722,2.831c4.209-0.495,8.351-1.442,12.524-2.174
			c3.019-0.529,5.581-0.019,8.189,1.579c2.441,1.495,5.04,2.772,7.412,4.375c2.662,1.798,2.76,4.344,0.088,6.072
			c-3.977,2.57-8.082,4.967-12.356,7.031c-2.967,1.434-5.882,0.361-8.757-0.448c-2.522-0.709-4.977-1.656-7.569-2.124
			c-2.125-0.385-3.752,0.34-4.601,2.308c-0.856,1.986-0.172,3.549,1.558,4.879c3.599,2.767,3.581,2.876,1.023,6.459
			c-1.003,1.406-1.578,2.875-0.828,4.545c0.707,1.572,2.134,1.923,3.715,2.051c4.858,0.393,5.001,0.526,4.758,5.341
			c-0.078,1.545,0.733,3.285-0.769,4.605c-6.428-1.164-12.458-3.59-18.5-5.938c-29.575-11.5-56.208-28.056-81.212-47.395
			c-0.769-0.595-1.454-1.684-2.526-1.232c-1.155,0.486-0.656,1.763-0.664,2.69c-0.066,8.372-0.081,16.744-0.11,25.116
			c-0.513,0.081-0.93-0.083-1.251-0.49c-1-2.218-1.09-4.579-1.163-6.96c-0.452-14.745,1.075-29.45,0.85-44.193
			c-0.071-4.642,1.707-8.77,4.63-12.382c3.136-4.279,5.703-8.97,9.664-12.648c6.563-6.095,14.246-9.763,23.053-11.194
			c1.082-0.176,2.129-0.57,3.192-0.863c0.937,0.918,2.114,0.569,3.204,0.569c66.452,0.011,132.905,0.011,199.358,0.007
			c0.979-0.001,2.007,0.264,2.895-0.413c9.525,1.464,18.427,4.379,25.623,11.164c4.099,3.862,7.701,8.103,9.732,13.468
			c4.436,3.049,5.308,7.865,5.304,12.551c-0.013,14.917,1.411,29.799,0.916,44.721c-0.07,2.124-0.263,4.214-1.147,6.181
			C449.462,352.585,449.046,352.75,448.535,352.676z"/>
		<path fill-rule="evenodd" clip-rule="evenodd" fill="#594A65" d="M164.302,352.476c0.212,0.046,0.419,0.108,0.621,0.188
			c7.294,7.007,15.5,12.914,23.316,19.289c17.785,14.504,35.649,28.91,53.482,43.356c-6.656,6.008-13.344,11.984-19.963,18.034
			c-14.898,13.618-29.779,27.255-44.634,40.92c-7.43,6.834-14.747,13.793-22.189,20.613c-10.745,9.848-21.492,19.695-32.378,29.386
			c-3.731,3.321-6.275,6.715-5.657,12.153c0.504,4.435,0.055,8.977,0.028,13.472c-0.994-1.467-0.636-3.143-0.636-4.726
			c-0.003-60.651-0.017-121.303,0.069-181.953c0.019-13.69,3.436-26.552,10.45-38.381c0.369-0.623,0.915-1.14,1.378-1.706
			c1.384,0.051,2.678,0.277,3.804,1.23c9.65,8.161,19.758,15.758,29.435,23.889C162.874,349.455,163.22,351.157,164.302,352.476z"/>
		<path fill-rule="evenodd" clip-rule="evenodd" fill="#4C3E57" d="M164.302,352.476c-12.133-9.667-24.476-19.077-36.113-29.354
			c4.366-7.683,10.302-14.036,17.345-19.216c7.287-5.358,14.954-10.198,22.456-15.266c-5.512,18.765-2.773,38.051-3.604,57.112
			C164.287,347.99,164.326,350.234,164.302,352.476z"/>
		<path fill-rule="evenodd" clip-rule="evenodd" fill="#594A65" d="M448.535,352.676c0.203-0.082,0.41-0.147,0.622-0.199
			c1.636-4.401,5.706-6.475,9.026-9.184c7.344-5.989,14.734-11.923,22.107-17.877c1.484-1.199,2.951-2.315,4.971-2.304
			c6.512,9.131,9.626,19.515,11.163,30.462c0.995,7.08,0.688,14.212,0.692,21.329c0.028,56.115,0.053,112.23,0.038,168.345
			c0,2.203,0.523,4.5-0.643,6.606c-0.023-4.744-0.423-9.523,0.037-14.22c0.463-4.723-1.623-7.696-4.879-10.595
			c-8.558-7.618-16.946-15.427-25.413-23.147c-13.805-12.587-27.639-25.143-41.42-37.755c-7.262-6.646-14.415-13.408-21.662-20.068
			c-10.454-9.608-20.949-19.171-31.428-28.754c16.281-13.187,32.56-26.378,48.847-39.558c8.437-6.827,16.897-13.622,25.323-20.461
			C446.871,354.522,447.667,353.554,448.535,352.676z"/>
		<path fill-rule="evenodd" clip-rule="evenodd" fill="#4C3E57" d="M485.262,323.112c-3.773,4.354-8.688,7.383-13.039,11.056
			c-7.499,6.328-15.357,12.229-23.065,18.309c-0.163-14.847-0.377-29.694-0.467-44.541c-0.04-6.693-0.771-13.194-3.98-19.208
			c0.372,0,0.846-0.149,1.101,0.024c13.515,9.191,28.088,17.116,37.538,31.191C484.036,320.967,484.627,322.055,485.262,323.112z"/>
		<path fill-rule="evenodd" clip-rule="evenodd" fill="#FEFEFE" d="M267.934,379.425c-1.082-2.084-1.435-4.217-0.611-6.5
			c0.293-0.813,0.954-2.397-0.759-1.992c-3.55,0.84-6.634,0.723-8.2-3.014c-1.623-3.872,0.95-6.244,3.837-8.266
			c-0.362-0.298-0.53-0.503-0.747-0.604c-4.711-2.191-6.254-4.729-4.929-8.135c1.267-3.256,4.412-4.769,8.804-2.8
			c8.441,3.784,15.81,2.623,22.782-3.101c1.507-1.237,3.665-1.583,5.021-3.611c-4.076-2.344-8.077-4.622-12.051-6.945
			c-1.068-0.624-2.104-0.506-3.243-0.288c-4.412,0.846-8.833,1.648-13.26,2.409c-5.127,0.881-7.914-0.448-8.698-4.064
			c-0.767-3.539,1.193-5.838,6.15-7.262c0.434-0.125,0.815-0.432,1.293-0.695c-5.386-4.071-6.496-6.45-4.626-9.692
			c1.88-3.259,4.547-3.542,10.183-1.08c0.625-0.825,0.157-1.65,0.021-2.489c-0.557-3.455,1.022-6.194,4.119-6.918
			c3.305-0.772,5.714,0.579,6.844,3.686c1.407,3.866,2.639,7.808,3.713,11.779c0.635,2.35,1.851,3.912,4.008,5.034
			c3.209,1.669,6.317,3.54,9.422,5.404c1.77,1.063,2.443,0.653,2.413-1.387c-0.055-3.747-0.061-7.495-0.011-11.241
			c0.022-1.682-0.959-2.777-1.954-3.9c-2.568-2.897-5.149-5.782-7.714-8.683c-3.086-3.492-3.44-6.807-1.006-9.276
			c2.552-2.589,5.397-2.296,9.154,0.917c0.26,0.223,0.614,0.338,1.203,0.651c0.556-4.249,0.237-9.336,6.213-9.321
			c5.993,0.016,5.714,5.026,6.079,9.137c1.308,0.039,1.652-0.925,2.296-1.444c2.792-2.25,5.782-2.265,8.087-0.011
			c2.185,2.137,2.317,5.437,0.093,8.131c-2.464,2.983-4.997,5.927-7.708,8.684c-2.251,2.291-3.338,4.765-3.045,8.021
			c0.245,2.726,0.127,5.494,0.029,8.238c-0.083,2.371,0.752,2.527,2.588,1.426c3.533-2.119,7.099-4.19,10.719-6.155
			c1.487-0.806,2.057-2.062,2.512-3.52c1.116-3.574,2.231-7.149,3.414-10.702c1.423-4.274,3.938-6.059,7.313-5.295
			c3.296,0.747,4.65,3.464,4.011,8.009c-0.047,0.332,0.024,0.681,0.049,1.212c4.431-1.667,9.418-7.063,12.958-0.238
			c3.584,6.91-4.189,7.893-7.604,11.077c0.614,1.405,1.962,0.891,2.911,1.196c3.577,1.151,5.369,3.714,4.688,6.977
			c-0.651,3.126-3.605,4.985-7.173,4.366c-4.18-0.726-8.371-1.433-12.495-2.41c-3.091-0.731-5.766-0.542-8.469,1.354
			c-2.842,1.994-5.971,3.581-9.557,5.688c5.608,3.235,10.757,6.22,15.923,9.172c1.221,0.699,2.447,0.104,3.631-0.216
			c3.252-0.881,6.471-1.892,9.738-2.706c3.835-0.956,6.597,0.312,7.709,3.355c1.162,3.186-0.281,5.886-4.094,7.644
			c-0.334,0.154-0.68,0.283-1.511,0.625c3.818,2.862,10.078,4.935,5.974,10.985c-3.603,5.311-7.971,1.242-12.416-0.837
			c0.823,3.484,2.574,6.539,0.583,9.63c-2.119,2.017-4.555,2.626-7.347,1.656c-2.592,0.539-3.576-1.354-4.456-3.13
			c-2.267-4.577-4.197-9.312-6.108-14.044c-1.902-4.709-6.51-5.876-10.267-8.127c-1.138-0.683-1.427,0.614-1.437,1.496
			c-0.041,3.864-0.508,7.792,0.202,11.572c0.638,3.396,3.544,5.575,5.781,8.063c1.862,2.072,4.435,3.792,4.06,7.152
			c0.769,3.094,0.844,6.046-2.349,7.892c-3.755,2.171-6.317-0.183-9.122-3.044c-0.556,4.658-0.117,9.882-6.494,9.941
			c-3.562,0.032-5.025-2.41-5.978-9.545c-2.972,2.706-6.046,5.103-9.791,2.132c-2.52-2-2.483-4.692-1.457-7.483
			c-0.457-1.189-0.102-2.215,0.704-3.094c1.098-1.196,1.717-2.86,3.023-3.775c6.979-4.884,6.355-12.081,6.042-19.212
			c-0.082-1.86-0.733-2.489-2.584-1.483c-4.853,2.637-9.41,5.299-11.002,11.33c-0.872,3.304-2.661,6.418-4.093,9.594
			c-1.075,2.381-2.539,3.951-5.33,3.796C272.134,381.332,269.852,381.088,267.934,379.425z"/>
		<path fill-rule="evenodd" clip-rule="evenodd" fill="#A695AC" d="M274.534,381.116c1.852-0.97,3.033-2.485,3.799-4.42
			c0.962-2.427,2.406-4.72,3.004-7.223c1.996-8.357,8.033-12.648,15.208-16.038c2.027-0.958,2.92-0.982,2.878,1.576
			c-0.076,4.603-0.07,9.208,0.002,13.81c0.026,1.655-0.748,2.822-1.758,3.959c-3.304,3.721-6.597,7.453-9.893,11.18
			C283.297,383.309,278.813,382.69,274.534,381.116z"/>
		<path fill-rule="evenodd" clip-rule="evenodd" fill="#A695AC" d="M322.964,384.069c-1.073-1.207-1.975-2.648-3.248-3.583
			c-9.813-7.21-9.454-17.38-8.136-28.377c6.161,4.036,13.87,5.645,16.061,14.237c1.002,3.931,3.081,7.589,4.687,11.365
			c0.602,1.416,1.656,2.464,2.861,3.376C331.502,383.671,327.051,383.123,322.964,384.069z"/>
	</g>
</g>
</svg>
